<mxfile host="app.diagrams.net" modified="2023-05-28T23:24:10.233Z" agent="Mozilla/5.0 (Windows NT 10.0; Win64; x64) AppleWebKit/537.36 (KHTML, like Gecko) Chrome/112.0.0.0 Safari/537.36 OPR/98.0.0.0" etag="NB0NM9drEucqWGuiBWeT" version="21.3.4" type="device">
  <diagram name="Página-1" id="NdCpWLNdOYI7J35H5A5H">
    <mxGraphModel dx="1153" dy="586" grid="1" gridSize="10" guides="1" tooltips="1" connect="1" arrows="1" fold="1" page="1" pageScale="1" pageWidth="827" pageHeight="1169" math="0" shadow="0">
      <root>
        <mxCell id="0" />
        <mxCell id="1" parent="0" />
        <mxCell id="y2gqZGI-gDJrklI8G3fB-6" style="edgeStyle=orthogonalEdgeStyle;rounded=0;orthogonalLoop=1;jettySize=auto;html=1;exitX=0.5;exitY=0;exitDx=0;exitDy=0;" parent="1" source="ZUoEjfzEENiVPoEZs-mW-4" edge="1">
          <mxGeometry relative="1" as="geometry">
            <mxPoint x="205" y="80" as="targetPoint" />
          </mxGeometry>
        </mxCell>
        <mxCell id="y2gqZGI-gDJrklI8G3fB-8" value="(1,n)" style="edgeLabel;html=1;align=center;verticalAlign=middle;resizable=0;points=[];" parent="y2gqZGI-gDJrklI8G3fB-6" vertex="1" connectable="0">
          <mxGeometry x="0.609" y="-1" relative="1" as="geometry">
            <mxPoint x="-1" y="-2" as="offset" />
          </mxGeometry>
        </mxCell>
        <mxCell id="ZUoEjfzEENiVPoEZs-mW-4" value="Vendas" style="rounded=0;whiteSpace=wrap;html=1;" parent="1" vertex="1">
          <mxGeometry x="145" y="190" width="120" height="60" as="geometry" />
        </mxCell>
        <mxCell id="y2gqZGI-gDJrklI8G3fB-19" style="edgeStyle=orthogonalEdgeStyle;rounded=0;orthogonalLoop=1;jettySize=auto;html=1;exitX=1;exitY=0.5;exitDx=0;exitDy=0;entryX=0;entryY=0;entryDx=0;entryDy=0;" parent="1" source="ZUoEjfzEENiVPoEZs-mW-15" target="ZUoEjfzEENiVPoEZs-mW-4" edge="1">
          <mxGeometry relative="1" as="geometry" />
        </mxCell>
        <mxCell id="ZUoEjfzEENiVPoEZs-mW-15" value="pedidos" style="ellipse;whiteSpace=wrap;html=1;align=center;" parent="1" vertex="1">
          <mxGeometry y="150" width="110" height="40" as="geometry" />
        </mxCell>
        <mxCell id="y2gqZGI-gDJrklI8G3fB-22" style="edgeStyle=orthogonalEdgeStyle;rounded=0;orthogonalLoop=1;jettySize=auto;html=1;entryX=1;entryY=0;entryDx=0;entryDy=0;" parent="1" source="ZUoEjfzEENiVPoEZs-mW-16" target="ZUoEjfzEENiVPoEZs-mW-4" edge="1">
          <mxGeometry relative="1" as="geometry" />
        </mxCell>
        <mxCell id="ZUoEjfzEENiVPoEZs-mW-16" value="detalhes de venda" style="ellipse;whiteSpace=wrap;html=1;align=center;" parent="1" vertex="1">
          <mxGeometry x="300" y="70" width="90" height="40" as="geometry" />
        </mxCell>
        <mxCell id="y2gqZGI-gDJrklI8G3fB-21" style="edgeStyle=orthogonalEdgeStyle;rounded=0;orthogonalLoop=1;jettySize=auto;html=1;exitX=1;exitY=0.5;exitDx=0;exitDy=0;entryX=0;entryY=1;entryDx=0;entryDy=0;" parent="1" source="y2gqZGI-gDJrklI8G3fB-2" target="ZUoEjfzEENiVPoEZs-mW-4" edge="1">
          <mxGeometry relative="1" as="geometry" />
        </mxCell>
        <mxCell id="y2gqZGI-gDJrklI8G3fB-2" value="histórico de vendas" style="ellipse;whiteSpace=wrap;html=1;align=center;" parent="1" vertex="1">
          <mxGeometry x="5" y="250" width="100" height="40" as="geometry" />
        </mxCell>
        <mxCell id="y2gqZGI-gDJrklI8G3fB-7" value="clientes" style="shape=rhombus;perimeter=rhombusPerimeter;whiteSpace=wrap;html=1;align=center;" parent="1" vertex="1">
          <mxGeometry x="145" y="20" width="120" height="60" as="geometry" />
        </mxCell>
        <mxCell id="y2gqZGI-gDJrklI8G3fB-11" value="Produção" style="rounded=0;whiteSpace=wrap;html=1;" parent="1" vertex="1">
          <mxGeometry x="145" y="420" width="120" height="60" as="geometry" />
        </mxCell>
        <mxCell id="y2gqZGI-gDJrklI8G3fB-14" style="edgeStyle=orthogonalEdgeStyle;rounded=0;orthogonalLoop=1;jettySize=auto;html=1;exitX=1;exitY=0.5;exitDx=0;exitDy=0;entryX=0;entryY=0.25;entryDx=0;entryDy=0;" parent="1" source="y2gqZGI-gDJrklI8G3fB-12" target="y2gqZGI-gDJrklI8G3fB-11" edge="1">
          <mxGeometry relative="1" as="geometry" />
        </mxCell>
        <mxCell id="y2gqZGI-gDJrklI8G3fB-12" value="lista de materiais" style="ellipse;whiteSpace=wrap;html=1;align=center;" parent="1" vertex="1">
          <mxGeometry x="25" y="390" width="100" height="40" as="geometry" />
        </mxCell>
        <mxCell id="y2gqZGI-gDJrklI8G3fB-20" style="edgeStyle=orthogonalEdgeStyle;rounded=0;orthogonalLoop=1;jettySize=auto;html=1;exitX=1;exitY=0.5;exitDx=0;exitDy=0;entryX=0;entryY=0.5;entryDx=0;entryDy=0;" parent="1" source="y2gqZGI-gDJrklI8G3fB-13" target="ZUoEjfzEENiVPoEZs-mW-4" edge="1">
          <mxGeometry relative="1" as="geometry" />
        </mxCell>
        <mxCell id="y2gqZGI-gDJrklI8G3fB-13" value="itens de linha de vendas" style="ellipse;whiteSpace=wrap;html=1;align=center;" parent="1" vertex="1">
          <mxGeometry x="5" y="200" width="100" height="40" as="geometry" />
        </mxCell>
        <mxCell id="y2gqZGI-gDJrklI8G3fB-17" style="edgeStyle=orthogonalEdgeStyle;rounded=0;orthogonalLoop=1;jettySize=auto;html=1;entryX=-0.001;entryY=0.658;entryDx=0;entryDy=0;entryPerimeter=0;" parent="1" source="y2gqZGI-gDJrklI8G3fB-15" target="y2gqZGI-gDJrklI8G3fB-11" edge="1">
          <mxGeometry relative="1" as="geometry" />
        </mxCell>
        <mxCell id="y2gqZGI-gDJrklI8G3fB-15" value="instruções de roteamento" style="ellipse;whiteSpace=wrap;html=1;align=center;" parent="1" vertex="1">
          <mxGeometry x="25" y="440" width="100" height="40" as="geometry" />
        </mxCell>
        <mxCell id="y2gqZGI-gDJrklI8G3fB-18" style="edgeStyle=orthogonalEdgeStyle;rounded=0;orthogonalLoop=1;jettySize=auto;html=1;exitX=1;exitY=0.5;exitDx=0;exitDy=0;entryX=0;entryY=1;entryDx=0;entryDy=0;" parent="1" source="y2gqZGI-gDJrklI8G3fB-16" target="y2gqZGI-gDJrklI8G3fB-11" edge="1">
          <mxGeometry relative="1" as="geometry" />
        </mxCell>
        <mxCell id="y2gqZGI-gDJrklI8G3fB-16" value="detalhes de produto" style="ellipse;whiteSpace=wrap;html=1;align=center;" parent="1" vertex="1">
          <mxGeometry x="25" y="490" width="100" height="40" as="geometry" />
        </mxCell>
        <mxCell id="kvI01K5ZyEuUzIXlB95C-9" style="edgeStyle=orthogonalEdgeStyle;rounded=0;orthogonalLoop=1;jettySize=auto;html=1;exitX=1;exitY=1;exitDx=0;exitDy=0;entryX=0.5;entryY=0;entryDx=0;entryDy=0;" edge="1" parent="1" source="y2gqZGI-gDJrklI8G3fB-23" target="y2gqZGI-gDJrklI8G3fB-37">
          <mxGeometry relative="1" as="geometry" />
        </mxCell>
        <mxCell id="y2gqZGI-gDJrklI8G3fB-23" value="Compras" style="rounded=0;whiteSpace=wrap;html=1;" parent="1" vertex="1">
          <mxGeometry x="450" y="140" width="120" height="60" as="geometry" />
        </mxCell>
        <mxCell id="kvI01K5ZyEuUzIXlB95C-12" style="edgeStyle=orthogonalEdgeStyle;rounded=0;orthogonalLoop=1;jettySize=auto;html=1;exitX=0.5;exitY=1;exitDx=0;exitDy=0;entryX=0.5;entryY=0;entryDx=0;entryDy=0;" edge="1" parent="1" source="y2gqZGI-gDJrklI8G3fB-28" target="y2gqZGI-gDJrklI8G3fB-33">
          <mxGeometry relative="1" as="geometry" />
        </mxCell>
        <mxCell id="y2gqZGI-gDJrklI8G3fB-28" value="Recursos Humanos" style="rounded=0;whiteSpace=wrap;html=1;" parent="1" vertex="1">
          <mxGeometry x="470" y="325" width="120" height="60" as="geometry" />
        </mxCell>
        <mxCell id="y2gqZGI-gDJrklI8G3fB-31" style="edgeStyle=orthogonalEdgeStyle;rounded=0;orthogonalLoop=1;jettySize=auto;html=1;exitX=0;exitY=0.5;exitDx=0;exitDy=0;entryX=1;entryY=0;entryDx=0;entryDy=0;" parent="1" source="y2gqZGI-gDJrklI8G3fB-29" target="y2gqZGI-gDJrklI8G3fB-28" edge="1">
          <mxGeometry relative="1" as="geometry" />
        </mxCell>
        <mxCell id="y2gqZGI-gDJrklI8G3fB-29" value="detalhes do empregado" style="ellipse;whiteSpace=wrap;html=1;align=center;" parent="1" vertex="1">
          <mxGeometry x="620" y="285" width="100" height="40" as="geometry" />
        </mxCell>
        <mxCell id="y2gqZGI-gDJrklI8G3fB-32" style="edgeStyle=orthogonalEdgeStyle;rounded=0;orthogonalLoop=1;jettySize=auto;html=1;exitX=0;exitY=0.5;exitDx=0;exitDy=0;entryX=1;entryY=0.5;entryDx=0;entryDy=0;" parent="1" source="y2gqZGI-gDJrklI8G3fB-30" target="y2gqZGI-gDJrklI8G3fB-28" edge="1">
          <mxGeometry relative="1" as="geometry" />
        </mxCell>
        <mxCell id="y2gqZGI-gDJrklI8G3fB-30" value="departamentos" style="ellipse;whiteSpace=wrap;html=1;align=center;" parent="1" vertex="1">
          <mxGeometry x="620" y="335" width="100" height="40" as="geometry" />
        </mxCell>
        <mxCell id="y2gqZGI-gDJrklI8G3fB-33" value="Funcionarios" style="shape=rhombus;perimeter=rhombusPerimeter;whiteSpace=wrap;html=1;align=center;" parent="1" vertex="1">
          <mxGeometry x="470" y="420" width="120" height="60" as="geometry" />
        </mxCell>
        <mxCell id="y2gqZGI-gDJrklI8G3fB-37" value="compras de&lt;br style=&quot;border-color: var(--border-color);&quot;&gt;insumos" style="shape=rhombus;perimeter=rhombusPerimeter;whiteSpace=wrap;html=1;align=center;" parent="1" vertex="1">
          <mxGeometry x="510" y="210" width="120" height="60" as="geometry" />
        </mxCell>
        <mxCell id="kvI01K5ZyEuUzIXlB95C-2" style="edgeStyle=orthogonalEdgeStyle;rounded=0;orthogonalLoop=1;jettySize=auto;html=1;entryX=0.5;entryY=1;entryDx=0;entryDy=0;" edge="1" parent="1" source="kvI01K5ZyEuUzIXlB95C-1" target="ZUoEjfzEENiVPoEZs-mW-4">
          <mxGeometry relative="1" as="geometry" />
        </mxCell>
        <mxCell id="kvI01K5ZyEuUzIXlB95C-3" style="edgeStyle=orthogonalEdgeStyle;rounded=0;orthogonalLoop=1;jettySize=auto;html=1;exitX=0.5;exitY=1;exitDx=0;exitDy=0;entryX=0.5;entryY=0;entryDx=0;entryDy=0;" edge="1" parent="1" source="kvI01K5ZyEuUzIXlB95C-1" target="y2gqZGI-gDJrklI8G3fB-11">
          <mxGeometry relative="1" as="geometry" />
        </mxCell>
        <mxCell id="kvI01K5ZyEuUzIXlB95C-1" value="demanda" style="shape=rhombus;perimeter=rhombusPerimeter;whiteSpace=wrap;html=1;align=center;" vertex="1" parent="1">
          <mxGeometry x="145" y="310" width="120" height="60" as="geometry" />
        </mxCell>
        <mxCell id="kvI01K5ZyEuUzIXlB95C-6" style="edgeStyle=orthogonalEdgeStyle;rounded=0;orthogonalLoop=1;jettySize=auto;html=1;exitX=0;exitY=0.5;exitDx=0;exitDy=0;entryX=1;entryY=0.5;entryDx=0;entryDy=0;" edge="1" parent="1" source="kvI01K5ZyEuUzIXlB95C-5" target="ZUoEjfzEENiVPoEZs-mW-4">
          <mxGeometry relative="1" as="geometry" />
        </mxCell>
        <mxCell id="kvI01K5ZyEuUzIXlB95C-7" style="edgeStyle=orthogonalEdgeStyle;rounded=0;orthogonalLoop=1;jettySize=auto;html=1;exitX=1;exitY=0.5;exitDx=0;exitDy=0;entryX=0;entryY=0.5;entryDx=0;entryDy=0;" edge="1" parent="1" source="kvI01K5ZyEuUzIXlB95C-5" target="y2gqZGI-gDJrklI8G3fB-23">
          <mxGeometry relative="1" as="geometry" />
        </mxCell>
        <mxCell id="kvI01K5ZyEuUzIXlB95C-5" value="gestão" style="shape=rhombus;perimeter=rhombusPerimeter;whiteSpace=wrap;html=1;align=center;" vertex="1" parent="1">
          <mxGeometry x="285" y="140" width="120" height="60" as="geometry" />
        </mxCell>
        <mxCell id="kvI01K5ZyEuUzIXlB95C-8" value="" style="edgeStyle=orthogonalEdgeStyle;rounded=0;orthogonalLoop=1;jettySize=auto;html=1;exitX=0;exitY=1;exitDx=0;exitDy=0;entryX=0.5;entryY=0;entryDx=0;entryDy=0;" edge="1" parent="1" source="y2gqZGI-gDJrklI8G3fB-23" target="y2gqZGI-gDJrklI8G3fB-36">
          <mxGeometry relative="1" as="geometry">
            <mxPoint x="430" y="200" as="sourcePoint" />
            <mxPoint x="430" y="340" as="targetPoint" />
          </mxGeometry>
        </mxCell>
        <mxCell id="y2gqZGI-gDJrklI8G3fB-36" value="fornecedores" style="shape=rhombus;perimeter=rhombusPerimeter;whiteSpace=wrap;html=1;align=center;" parent="1" vertex="1">
          <mxGeometry x="390" y="210" width="120" height="60" as="geometry" />
        </mxCell>
      </root>
    </mxGraphModel>
  </diagram>
</mxfile>
